<svg width="1113" height="243" viewBox="0 0 1113 243" fill="none" xmlns="http://www.w3.org/2000/svg">
<path d="M62.5 110.602C66.4062 112.229 70.3776 113.954 74.4141 115.777C78.4505 117.535 82.3242 119.456 86.0352 121.539C89.8112 123.557 93.3268 125.771 96.582 128.18C99.9023 130.589 102.767 133.258 105.176 136.188C107.65 139.117 109.57 142.34 110.938 145.855C112.37 149.371 113.086 153.277 113.086 157.574C113.086 163.954 111.816 169.651 109.277 174.664C106.738 179.612 103.32 183.811 99.0234 187.262C94.7266 190.647 89.7135 193.251 83.9844 195.074C78.2552 196.897 72.2331 197.809 65.918 197.809C57.4544 197.809 48.9583 196.734 40.4297 194.586C31.9661 192.438 23.9909 188.857 16.5039 183.844C15.0716 182.932 13.6719 181.728 12.3047 180.23C10.9375 178.733 10.2539 177.138 10.2539 175.445C10.2539 174.078 10.7422 172.874 11.7188 171.832L21.6797 160.016C24.8047 162.49 28.2552 165.191 32.0312 168.121C35.8073 171.051 39.681 173.785 43.6523 176.324C47.6888 178.863 51.6927 180.979 55.6641 182.672C59.6354 184.365 63.3789 185.211 66.8945 185.211C69.8242 185.211 72.6888 184.723 75.4883 183.746C78.2878 182.77 80.7617 181.402 82.9102 179.645C85.1237 177.822 86.8815 175.641 88.1836 173.102C89.5508 170.497 90.2344 167.6 90.2344 164.41C90.2344 160.309 89.1602 156.565 87.0117 153.18C84.8633 149.794 81.9987 146.702 78.418 143.902C74.9023 141.038 70.8659 138.434 66.3086 136.09C61.8164 133.746 57.194 131.598 52.4414 129.645C44.5638 126.324 38.1836 123.004 33.3008 119.684C28.418 116.298 24.6094 112.945 21.875 109.625C19.2057 106.24 17.3828 102.887 16.4062 99.5664C15.4948 96.2461 15.0391 92.9909 15.0391 89.8008C15.0391 84.9831 15.8529 80.7188 17.4805 77.0078C19.1081 73.2969 21.2891 70.0742 24.0234 67.3398C26.8229 64.5404 30.0781 62.1966 33.7891 60.3086C37.5 58.4206 41.4388 56.8906 45.6055 55.7188C49.7721 54.5469 54.0365 53.7005 58.3984 53.1797C62.8255 52.6589 67.1224 52.3984 71.2891 52.3984C73.112 52.3984 75.2604 52.4961 77.7344 52.6914C80.2083 52.8216 82.7799 53.0495 85.4492 53.375C88.1185 53.7005 90.7552 54.1562 93.3594 54.7422C95.9635 55.263 98.2747 55.9466 100.293 56.793C102.376 57.5742 104.036 58.5182 105.273 59.625C106.576 60.7318 107.227 62.0013 107.227 63.4336C107.227 64.5404 106.836 65.8099 106.055 67.2422L98.2422 80.6211C95.3776 78.9935 92.4154 77.2682 89.3555 75.4453C86.2956 73.6224 83.1055 71.9948 79.7852 70.5625C76.4648 69.0651 73.0143 67.8281 69.4336 66.8516C65.918 65.875 62.207 65.3867 58.3008 65.3867C55.5664 65.3867 52.9297 65.8099 50.3906 66.6562C47.8516 67.5026 45.638 68.8047 43.75 70.5625C41.862 72.2552 40.332 74.4036 39.1602 77.0078C38.0534 79.5469 37.5 82.5417 37.5 85.9922C37.5 88.9219 38.1836 91.5911 39.5508 94C40.9831 96.4089 42.8385 98.6224 45.1172 100.641C47.4609 102.659 50.1302 104.482 53.125 106.109C56.1198 107.737 59.2448 109.234 62.5 110.602ZM305.859 184.234H322.852V191.559C321.745 192.145 320.215 192.698 318.262 193.219C316.374 193.74 314.258 194.195 311.914 194.586C309.57 194.977 307.129 195.27 304.59 195.465C302.051 195.66 299.609 195.758 297.266 195.758C295.247 195.758 293.392 195.628 291.699 195.367C290.007 195.172 288.509 194.716 287.207 194C285.97 193.349 284.993 192.438 284.277 191.266C283.561 190.029 283.203 188.401 283.203 186.383V103.57H266.016V96.2461C267.383 95.6602 269.303 95.1068 271.777 94.5859C274.251 94.0651 276.953 93.6419 279.883 93.3164C282.878 92.9909 285.905 92.7305 288.965 92.5352C292.09 92.3398 294.922 92.2422 297.461 92.2422C298.828 92.2422 300.033 92.2747 301.074 92.3398C302.116 92.4049 302.995 92.6003 303.711 92.9258C304.427 93.2513 304.948 93.7721 305.273 94.4883C305.664 95.1393 305.859 96.1159 305.859 97.418V184.234ZM280.859 60.0156C280.859 58.1927 281.217 56.4674 281.934 54.8398C282.65 53.2122 283.626 51.8125 284.863 50.6406C286.1 49.4688 287.565 48.5573 289.258 47.9062C290.951 47.1901 292.741 46.832 294.629 46.832C296.517 46.832 298.307 47.1901 300 47.9062C301.693 48.5573 303.158 49.4688 304.395 50.6406C305.632 51.8125 306.608 53.2122 307.324 54.8398C308.04 56.4674 308.398 58.1927 308.398 60.0156C308.398 61.8385 308.04 63.5312 307.324 65.0938C306.608 66.6562 305.632 68.0234 304.395 69.1953C303.158 70.3672 301.693 71.3112 300 72.0273C298.307 72.6784 296.517 73.0039 294.629 73.0039C292.741 73.0039 290.951 72.6784 289.258 72.0273C287.565 71.3112 286.1 70.3672 284.863 69.1953C283.626 68.0234 282.65 66.6562 281.934 65.0938C281.217 63.5312 280.859 61.8385 280.859 60.0156ZM375.781 175.641C377.604 176.682 379.525 177.789 381.543 178.961C383.626 180.068 385.775 181.077 387.988 181.988C390.202 182.9 392.48 183.681 394.824 184.332C397.233 184.918 399.674 185.211 402.148 185.211C406.706 185.211 410.645 184.104 413.965 181.891C417.285 179.677 420.02 176.682 422.168 172.906C424.316 169.065 425.911 164.605 426.953 159.527C427.995 154.449 428.516 149.078 428.516 143.414C428.516 137.099 428.19 131.435 427.539 126.422C426.888 121.344 425.749 117.047 424.121 113.531C422.493 110.016 420.312 107.314 417.578 105.426C414.909 103.538 411.491 102.594 407.324 102.594C403.809 102.594 400.228 103.082 396.582 104.059C392.936 105.035 389.551 106.109 386.426 107.281C382.845 108.648 379.297 110.211 375.781 111.969V175.641ZM378.516 239.02C377.604 239.54 376.562 239.996 375.391 240.387C374.284 240.777 373.079 241.103 371.777 241.363C370.54 241.624 369.271 241.819 367.969 241.949C366.732 242.145 365.592 242.242 364.551 242.242C361.23 242.242 358.496 241.493 356.348 239.996C354.199 238.564 353.125 236.025 353.125 232.379V103.766H335.742V96.4414C337.109 95.8555 339.03 95.3021 341.504 94.7812C343.978 94.2604 346.712 93.8372 349.707 93.5117C352.702 93.1862 355.762 92.9258 358.887 92.7305C362.012 92.5352 364.844 92.4375 367.383 92.4375C368.75 92.4375 369.954 92.4701 370.996 92.5352C372.038 92.6003 372.917 92.7956 373.633 93.1211C374.349 93.4466 374.87 93.9674 375.195 94.6836C375.586 95.3346 375.781 96.3112 375.781 97.6133V102.203C377.669 100.836 379.883 99.4688 382.422 98.1016C385.026 96.7344 387.826 95.5299 390.82 94.4883C393.815 93.4466 396.973 92.6003 400.293 91.9492C403.613 91.2982 407.031 90.9727 410.547 90.9727C418.555 90.9727 425.26 92.5026 430.664 95.5625C436.068 98.6224 440.43 102.659 443.75 107.672C447.07 112.62 449.414 118.251 450.781 124.566C452.214 130.816 452.93 137.164 452.93 143.609C452.93 147.971 452.507 152.333 451.66 156.695C450.879 161.057 449.642 165.224 447.949 169.195C446.322 173.167 444.238 176.845 441.699 180.23C439.225 183.616 436.296 186.546 432.91 189.02C429.59 191.493 425.814 193.447 421.582 194.879C417.415 196.311 412.793 197.027 407.715 197.027C403.092 197.027 398.828 196.539 394.922 195.562C391.016 194.586 387.63 193.512 384.766 192.34C381.966 191.103 379.753 189.996 378.125 189.02C376.562 187.978 375.781 187.424 375.781 187.359V210.992C375.781 215.029 375.879 218.577 376.074 221.637C376.27 224.697 376.497 227.366 376.758 229.645C377.083 231.923 377.409 233.811 377.734 235.309C378.06 236.871 378.32 238.108 378.516 239.02ZM526.367 110.602C530.273 112.229 534.245 113.954 538.281 115.777C542.318 117.535 546.191 119.456 549.902 121.539C553.678 123.557 557.194 125.771 560.449 128.18C563.77 130.589 566.634 133.258 569.043 136.188C571.517 139.117 573.438 142.34 574.805 145.855C576.237 149.371 576.953 153.277 576.953 157.574C576.953 163.954 575.684 169.651 573.145 174.664C570.605 179.612 567.188 183.811 562.891 187.262C558.594 190.647 553.581 193.251 547.852 195.074C542.122 196.897 536.1 197.809 529.785 197.809C521.322 197.809 512.826 196.734 504.297 194.586C495.833 192.438 487.858 188.857 480.371 183.844C478.939 182.932 477.539 181.728 476.172 180.23C474.805 178.733 474.121 177.138 474.121 175.445C474.121 174.078 474.609 172.874 475.586 171.832L485.547 160.016C488.672 162.49 492.122 165.191 495.898 168.121C499.674 171.051 503.548 173.785 507.52 176.324C511.556 178.863 515.56 180.979 519.531 182.672C523.503 184.365 527.246 185.211 530.762 185.211C533.691 185.211 536.556 184.723 539.355 183.746C542.155 182.77 544.629 181.402 546.777 179.645C548.991 177.822 550.749 175.641 552.051 173.102C553.418 170.497 554.102 167.6 554.102 164.41C554.102 160.309 553.027 156.565 550.879 153.18C548.73 149.794 545.866 146.702 542.285 143.902C538.77 141.038 534.733 138.434 530.176 136.09C525.684 133.746 521.061 131.598 516.309 129.645C508.431 126.324 502.051 123.004 497.168 119.684C492.285 116.298 488.477 112.945 485.742 109.625C483.073 106.24 481.25 102.887 480.273 99.5664C479.362 96.2461 478.906 92.9909 478.906 89.8008C478.906 84.9831 479.72 80.7188 481.348 77.0078C482.975 73.2969 485.156 70.0742 487.891 67.3398C490.69 64.5404 493.945 62.1966 497.656 60.3086C501.367 58.4206 505.306 56.8906 509.473 55.7188C513.639 54.5469 517.904 53.7005 522.266 53.1797C526.693 52.6589 530.99 52.3984 535.156 52.3984C536.979 52.3984 539.128 52.4961 541.602 52.6914C544.076 52.8216 546.647 53.0495 549.316 53.375C551.986 53.7005 554.622 54.1562 557.227 54.7422C559.831 55.263 562.142 55.9466 564.16 56.793C566.243 57.5742 567.904 58.5182 569.141 59.625C570.443 60.7318 571.094 62.0013 571.094 63.4336C571.094 64.5404 570.703 65.8099 569.922 67.2422L562.109 80.6211C559.245 78.9935 556.283 77.2682 553.223 75.4453C550.163 73.6224 546.973 71.9948 543.652 70.5625C540.332 69.0651 536.882 67.8281 533.301 66.8516C529.785 65.875 526.074 65.3867 522.168 65.3867C519.434 65.3867 516.797 65.8099 514.258 66.6562C511.719 67.5026 509.505 68.8047 507.617 70.5625C505.729 72.2552 504.199 74.4036 503.027 77.0078C501.921 79.5469 501.367 82.5417 501.367 85.9922C501.367 88.9219 502.051 91.5911 503.418 94C504.85 96.4089 506.706 98.6224 508.984 100.641C511.328 102.659 513.997 104.482 516.992 106.109C519.987 107.737 523.112 109.234 526.367 110.602ZM609.375 103.766H592.188V96.4414C593.555 95.8555 595.475 95.3021 597.949 94.7812C600.423 94.2604 603.125 93.8372 606.055 93.5117C609.049 93.1862 612.077 92.9258 615.137 92.7305C618.262 92.5352 621.094 92.4375 623.633 92.4375C625 92.4375 626.204 92.4701 627.246 92.5352C628.288 92.6003 629.167 92.7956 629.883 93.1211C630.599 93.4466 631.12 93.9674 631.445 94.6836C631.836 95.3346 632.031 96.3112 632.031 97.6133V102.398C633.008 102.073 634.798 101.292 637.402 100.055C640.072 98.8177 643.294 97.5482 647.07 96.2461C650.846 94.8789 654.98 93.6745 659.473 92.6328C663.965 91.526 668.555 90.9727 673.242 90.9727C678.906 90.9727 683.496 91.7539 687.012 93.3164C690.527 94.8789 693.262 97.0599 695.215 99.8594C697.168 102.594 698.47 105.849 699.121 109.625C699.837 113.401 700.195 117.535 700.195 122.027V184.234H717.188V191.559C716.081 192.145 714.551 192.698 712.598 193.219C710.71 193.74 708.594 194.195 706.25 194.586C703.906 194.977 701.465 195.27 698.926 195.465C696.387 195.66 693.945 195.758 691.602 195.758C689.583 195.758 687.728 195.628 686.035 195.367C684.342 195.172 682.878 194.716 681.641 194C680.404 193.349 679.427 192.438 678.711 191.266C677.995 190.029 677.637 188.401 677.637 186.383V123.98C677.637 120.66 677.441 117.828 677.051 115.484C676.725 113.141 676.042 111.22 675 109.723C674.023 108.225 672.624 107.151 670.801 106.5C669.043 105.784 666.764 105.426 663.965 105.426C662.142 105.426 660.124 105.556 657.91 105.816C655.762 106.077 653.516 106.435 651.172 106.891C648.893 107.281 646.647 107.704 644.434 108.16C642.285 108.616 640.299 109.072 638.477 109.527C636.719 109.918 635.254 110.276 634.082 110.602C632.91 110.927 632.227 111.122 632.031 111.188V164.605C632.031 168.642 632.129 172.19 632.324 175.25C632.52 178.31 632.747 180.979 633.008 183.258C633.333 185.536 633.659 187.457 633.984 189.02C634.31 190.517 634.57 191.721 634.766 192.633C633.854 193.154 632.812 193.609 631.641 194C630.534 194.326 629.329 194.618 628.027 194.879C626.79 195.204 625.521 195.432 624.219 195.562C622.982 195.693 621.842 195.758 620.801 195.758C619.108 195.758 617.578 195.595 616.211 195.27C614.844 195.009 613.639 194.521 612.598 193.805C611.556 193.089 610.742 192.145 610.156 190.973C609.635 189.736 609.375 188.206 609.375 186.383V103.766ZM799.219 185.406C799.219 185.406 798.763 185.699 797.852 186.285C797.005 186.806 795.801 187.49 794.238 188.336C792.741 189.182 790.951 190.126 788.867 191.168C786.849 192.145 784.603 193.089 782.129 194C779.72 194.846 777.181 195.562 774.512 196.148C771.908 196.734 769.271 197.027 766.602 197.027C762.37 197.027 758.333 196.441 754.492 195.27C750.651 194.163 747.266 192.405 744.336 189.996C741.471 187.587 739.16 184.56 737.402 180.914C735.71 177.268 734.863 172.906 734.863 167.828C734.863 162.229 736.1 157.477 738.574 153.57C741.113 149.664 744.596 146.507 749.023 144.098C753.516 141.624 758.854 139.866 765.039 138.824C771.224 137.717 778.027 137.164 785.449 137.164H799.219V129.84C799.219 126.064 799.056 122.451 798.73 119C798.47 115.484 797.786 112.424 796.68 109.82C795.638 107.216 794.076 105.133 791.992 103.57C789.974 102.008 787.24 101.227 783.789 101.227C780.469 101.227 777.148 101.845 773.828 103.082C770.508 104.254 767.253 105.751 764.062 107.574C760.872 109.397 757.812 111.415 754.883 113.629C751.953 115.777 749.284 117.828 746.875 119.781L738.867 109.039C737.891 107.867 737.402 106.663 737.402 105.426C737.402 103.277 738.737 101.324 741.406 99.5664C744.141 97.8086 747.526 96.3112 751.562 95.0742C755.664 93.7721 760.059 92.763 764.746 92.0469C769.434 91.3307 773.796 90.9727 777.832 90.9727C783.822 90.9727 789.486 91.6888 794.824 93.1211C800.163 94.5534 804.818 96.832 808.789 99.957C812.826 103.017 816.016 107.021 818.359 111.969C820.703 116.852 821.875 122.809 821.875 129.84V184.234H838.867V191.559C837.76 192.145 836.23 192.698 834.277 193.219C832.389 193.74 830.273 194.195 827.93 194.586C825.586 194.977 823.112 195.27 820.508 195.465C817.969 195.66 815.527 195.758 813.184 195.758C811.621 195.758 810.026 195.66 808.398 195.465C806.771 195.27 805.273 194.814 803.906 194.098C802.604 193.447 801.497 192.535 800.586 191.363C799.74 190.126 799.284 188.466 799.219 186.383V185.406ZM773.438 182.574C775.716 182.574 778.32 182.281 781.25 181.695C784.245 181.044 787.077 180.361 789.746 179.645C792.871 178.798 796.029 177.789 799.219 176.617V149.176H782.812C780.339 149.176 777.604 149.404 774.609 149.859C771.68 150.315 768.913 151.194 766.309 152.496C763.77 153.733 761.621 155.491 759.863 157.77C758.105 160.048 757.227 163.043 757.227 166.754C757.227 169.098 757.585 171.246 758.301 173.199C759.017 175.087 760.059 176.747 761.426 178.18C762.793 179.547 764.486 180.621 766.504 181.402C768.522 182.184 770.833 182.574 773.438 182.574ZM888.477 175.641C890.299 176.682 892.22 177.789 894.238 178.961C896.322 180.068 898.47 181.077 900.684 181.988C902.897 182.9 905.176 183.681 907.52 184.332C909.928 184.918 912.37 185.211 914.844 185.211C919.401 185.211 923.34 184.104 926.66 181.891C929.98 179.677 932.715 176.682 934.863 172.906C937.012 169.065 938.607 164.605 939.648 159.527C940.69 154.449 941.211 149.078 941.211 143.414C941.211 137.099 940.885 131.435 940.234 126.422C939.583 121.344 938.444 117.047 936.816 113.531C935.189 110.016 933.008 107.314 930.273 105.426C927.604 103.538 924.186 102.594 920.02 102.594C916.504 102.594 912.923 103.082 909.277 104.059C905.632 105.035 902.246 106.109 899.121 107.281C895.54 108.648 891.992 110.211 888.477 111.969V175.641ZM891.211 239.02C890.299 239.54 889.258 239.996 888.086 240.387C886.979 240.777 885.775 241.103 884.473 241.363C883.236 241.624 881.966 241.819 880.664 241.949C879.427 242.145 878.288 242.242 877.246 242.242C873.926 242.242 871.191 241.493 869.043 239.996C866.895 238.564 865.82 236.025 865.82 232.379V103.766H848.438V96.4414C849.805 95.8555 851.725 95.3021 854.199 94.7812C856.673 94.2604 859.408 93.8372 862.402 93.5117C865.397 93.1862 868.457 92.9258 871.582 92.7305C874.707 92.5352 877.539 92.4375 880.078 92.4375C881.445 92.4375 882.65 92.4701 883.691 92.5352C884.733 92.6003 885.612 92.7956 886.328 93.1211C887.044 93.4466 887.565 93.9674 887.891 94.6836C888.281 95.3346 888.477 96.3112 888.477 97.6133V102.203C890.365 100.836 892.578 99.4688 895.117 98.1016C897.721 96.7344 900.521 95.5299 903.516 94.4883C906.51 93.4466 909.668 92.6003 912.988 91.9492C916.309 91.2982 919.727 90.9727 923.242 90.9727C931.25 90.9727 937.956 92.5026 943.359 95.5625C948.763 98.6224 953.125 102.659 956.445 107.672C959.766 112.62 962.109 118.251 963.477 124.566C964.909 130.816 965.625 137.164 965.625 143.609C965.625 147.971 965.202 152.333 964.355 156.695C963.574 161.057 962.337 165.224 960.645 169.195C959.017 173.167 956.934 176.845 954.395 180.23C951.921 183.616 948.991 186.546 945.605 189.02C942.285 191.493 938.509 193.447 934.277 194.879C930.111 196.311 925.488 197.027 920.41 197.027C915.788 197.027 911.523 196.539 907.617 195.562C903.711 194.586 900.326 193.512 897.461 192.34C894.661 191.103 892.448 189.996 890.82 189.02C889.258 187.978 888.477 187.424 888.477 187.359V210.992C888.477 215.029 888.574 218.577 888.77 221.637C888.965 224.697 889.193 227.366 889.453 229.645C889.779 231.923 890.104 233.811 890.43 235.309C890.755 236.871 891.016 238.108 891.211 239.02ZM1023.83 175.641C1025.65 176.682 1027.57 177.789 1029.59 178.961C1031.67 180.068 1033.82 181.077 1036.04 181.988C1038.25 182.9 1040.53 183.681 1042.87 184.332C1045.28 184.918 1047.72 185.211 1050.2 185.211C1054.75 185.211 1058.69 184.104 1062.01 181.891C1065.33 179.677 1068.07 176.682 1070.21 172.906C1072.36 169.065 1073.96 164.605 1075 159.527C1076.04 154.449 1076.56 149.078 1076.56 143.414C1076.56 137.099 1076.24 131.435 1075.59 126.422C1074.93 121.344 1073.8 117.047 1072.17 113.531C1070.54 110.016 1068.36 107.314 1065.62 105.426C1062.96 103.538 1059.54 102.594 1055.37 102.594C1051.86 102.594 1048.27 103.082 1044.63 104.059C1040.98 105.035 1037.6 106.109 1034.47 107.281C1030.89 108.648 1027.34 110.211 1023.83 111.969V175.641ZM1026.56 239.02C1025.65 239.54 1024.61 239.996 1023.44 240.387C1022.33 240.777 1021.13 241.103 1019.82 241.363C1018.59 241.624 1017.32 241.819 1016.02 241.949C1014.78 242.145 1013.64 242.242 1012.6 242.242C1009.28 242.242 1006.54 241.493 1004.39 239.996C1002.25 238.564 1001.17 236.025 1001.17 232.379V103.766H983.789V96.4414C985.156 95.8555 987.077 95.3021 989.551 94.7812C992.025 94.2604 994.759 93.8372 997.754 93.5117C1000.75 93.1862 1003.81 92.9258 1006.93 92.7305C1010.06 92.5352 1012.89 92.4375 1015.43 92.4375C1016.8 92.4375 1018 92.4701 1019.04 92.5352C1020.08 92.6003 1020.96 92.7956 1021.68 93.1211C1022.4 93.4466 1022.92 93.9674 1023.24 94.6836C1023.63 95.3346 1023.83 96.3112 1023.83 97.6133V102.203C1025.72 100.836 1027.93 99.4688 1030.47 98.1016C1033.07 96.7344 1035.87 95.5299 1038.87 94.4883C1041.86 93.4466 1045.02 92.6003 1048.34 91.9492C1051.66 91.2982 1055.08 90.9727 1058.59 90.9727C1066.6 90.9727 1073.31 92.5026 1078.71 95.5625C1084.11 98.6224 1088.48 102.659 1091.8 107.672C1095.12 112.62 1097.46 118.251 1098.83 124.566C1100.26 130.816 1100.98 137.164 1100.98 143.609C1100.98 147.971 1100.55 152.333 1099.71 156.695C1098.93 161.057 1097.69 165.224 1096 169.195C1094.37 173.167 1092.29 176.845 1089.75 180.23C1087.27 183.616 1084.34 186.546 1080.96 189.02C1077.64 191.493 1073.86 193.447 1069.63 194.879C1065.46 196.311 1060.84 197.027 1055.76 197.027C1051.14 197.027 1046.88 196.539 1042.97 195.562C1039.06 194.586 1035.68 193.512 1032.81 192.34C1030.01 191.103 1027.8 189.996 1026.17 189.02C1024.61 187.978 1023.83 187.424 1023.83 187.359V210.992C1023.83 215.029 1023.93 218.577 1024.12 221.637C1024.32 224.697 1024.54 227.366 1024.8 229.645C1025.13 231.923 1025.46 233.811 1025.78 235.309C1026.11 236.871 1026.37 238.108 1026.56 239.02Z" fill="#89D5BC"/>
<path d="M212.752 119.946C220.842 124.605 231.905 120.613 237.421 111.035C239.421 107.611 240.487 103.722 240.512 99.7567C240.504 93.462 237.601 88.0329 232.734 85.2232C228.661 82.8782 223.776 82.6124 218.988 84.4806C214.523 86.2233 210.647 89.6469 208.065 94.1339C206.058 97.557 204.988 101.448 204.961 105.416C204.965 108.318 205.615 111.021 206.756 113.391L200.796 123.745C196.864 130.571 184.157 126.179 170.84 149.296C157.523 172.404 164.276 198.868 164.276 198.868L210.607 118.405C211.281 118.973 211.984 119.502 212.752 119.946ZM217.055 112.469C213.258 110.292 212.492 103.709 215.538 98.4366C217.143 95.6495 219.481 93.5427 222.119 92.5221C224.424 91.614 226.667 91.6803 228.431 92.6958C230.631 93.9565 231.885 96.5376 231.889 99.7626C231.891 102.104 231.222 104.515 229.944 106.732C226.863 112.095 220.959 114.719 217.059 112.469L217.055 112.469ZM188.975 146.433C186.893 146.436 185.201 144.756 185.198 142.669C185.198 142.514 185.271 142.38 185.284 142.225L191.806 145.093C191.462 145.511 191.029 145.849 190.54 146.082C190.051 146.315 189.517 146.438 188.975 146.442L188.975 146.433ZM192.743 142.661C192.743 142.824 192.67 142.962 192.658 143.113L186.144 140.25C186.485 139.83 186.916 139.491 187.404 139.257C187.892 139.023 188.425 138.9 188.966 138.897C191.049 138.894 192.741 140.574 192.743 142.661ZM211.995 198.817C211.995 198.817 218.69 172.336 205.319 149.26C203.98 146.946 202.649 144.973 201.328 143.163L190.584 161.823L211.995 198.817ZM183.328 128.875C179.661 127.37 176.823 126.408 175.303 123.771L169.319 113.43C170.506 110.939 171.113 108.211 171.095 105.452C171.09 101.602 170.008 97.7054 167.977 94.181C162.434 84.616 151.353 80.6452 143.275 85.3284C138.419 88.1366 135.524 93.5724 135.531 99.8758C135.536 103.73 136.618 107.635 138.649 111.151C141.25 115.632 145.134 119.046 149.598 120.779C154.395 122.636 159.279 122.354 163.351 119.995C164.103 119.546 164.814 119.032 165.475 118.458L175.411 135.614C177.76 133.049 180.419 130.786 183.328 128.879L183.328 128.875ZM152.719 112.743C150.079 111.72 147.736 109.623 146.124 106.844C143.074 101.579 143.816 94.9898 147.604 92.7951C151.494 90.5399 157.408 93.1544 160.51 98.5056C161.76 100.615 162.434 103.015 162.467 105.466C162.471 108.7 161.224 111.271 159.026 112.541C157.26 113.565 155.018 113.637 152.715 112.743L152.719 112.743Z" fill="white"/>
</svg>
